<svg width="62" height="62" viewBox="0 0 62 62" fill="none" xmlns="http://www.w3.org/2000/svg">
<g filter="url(#filter0_d_1_3)">
<circle cx="31" cy="31" r="20" fill="#C57E37"/>
</g>
<g clip-path="url(#clip0_1_3)">
<path d="M31.0007 29.9279C26.5936 29.9279 24.167 32.0155 24.167 35.7982C24.167 36.1015 24.399 36.3334 24.7023 36.3334H37.2992C37.6025 36.3334 37.8344 36.1015 37.8344 35.7982C37.8344 32.0155 35.4078 29.9279 31.0007 29.9279Z" fill="white"/>
<path d="M31.0007 29.1429C32.9633 29.1429 34.5513 27.4122 34.5513 25.2889C34.5513 23.2191 33.0169 21.6668 31.0007 21.6668C28.9845 21.6668 27.45 23.2191 27.45 25.2889C27.45 27.4122 29.0379 29.1429 31.0007 29.1429Z" fill="white"/>
</g>
<defs>
<filter id="filter0_d_1_3" x="0" y="0" width="62" height="62" filterUnits="userSpaceOnUse" color-interpolation-filters="sRGB">
<feFlood flood-opacity="0" result="BackgroundImageFix"/>
<feColorMatrix in="SourceAlpha" type="matrix" values="0 0 0 0 0 0 0 0 0 0 0 0 0 0 0 0 0 0 127 0" result="hardAlpha"/>
<feOffset/>
<feGaussianBlur stdDeviation="5.5"/>
<feColorMatrix type="matrix" values="0 0 0 0 0.0196078 0 0 0 0 0.32549 0 0 0 0 0.784314 0 0 0 0.3 0"/>
<feBlend mode="normal" in2="BackgroundImageFix" result="effect1_dropShadow_1_3"/>
<feBlend mode="normal" in="SourceGraphic" in2="effect1_dropShadow_1_3" result="shape"/>
</filter>
<clipPath id="clip0_1_3">
<rect width="14.6667" height="14.6667" fill="white" transform="translate(23.6675 21.6668)"/>
</clipPath>
</defs>
</svg>
